<svg id="visual" viewBox="0 0 900 200" width="900" height="200" xmlns="http://www.w3.org/2000/svg" xmlns:xlink="http://www.w3.org/1999/xlink" version="1.1"><rect x="0" y="0" width="900" height="200" fill="#282828"></rect><path d="M0 128L10.7 126.8C21.3 125.7 42.7 123.3 64.2 120C85.7 116.7 107.3 112.3 128.8 101.8C150.3 91.3 171.7 74.7 193 81C214.3 87.3 235.7 116.7 257 125.5C278.3 134.3 299.7 122.7 321.2 122.2C342.7 121.7 364.3 132.3 385.8 136.8C407.3 141.3 428.7 139.7 450 131.2C471.3 122.7 492.7 107.3 514.2 98.8C535.7 90.3 557.3 88.7 578.8 90.2C600.3 91.7 621.7 96.3 643 95.5C664.3 94.7 685.7 88.3 707 91.3C728.3 94.3 749.7 106.7 771.2 116.5C792.7 126.3 814.3 133.7 835.8 129.2C857.3 124.7 878.7 108.3 889.3 100.2L900 92L900 201L889.3 201C878.7 201 857.3 201 835.8 201C814.3 201 792.7 201 771.2 201C749.7 201 728.3 201 707 201C685.7 201 664.3 201 643 201C621.7 201 600.3 201 578.8 201C557.3 201 535.7 201 514.2 201C492.7 201 471.3 201 450 201C428.7 201 407.3 201 385.8 201C364.3 201 342.7 201 321.2 201C299.7 201 278.3 201 257 201C235.7 201 214.3 201 193 201C171.7 201 150.3 201 128.8 201C107.3 201 85.7 201 64.2 201C42.7 201 21.3 201 10.7 201L0 201Z" fill="#8ec07c"></path><path d="M0 155L10.7 148.3C21.3 141.7 42.7 128.3 64.2 118.8C85.7 109.3 107.3 103.7 128.8 111.8C150.3 120 171.7 142 193 146.5C214.3 151 235.7 138 257 131.7C278.3 125.3 299.7 125.7 321.2 132.2C342.7 138.7 364.3 151.3 385.8 146C407.3 140.7 428.7 117.3 450 117C471.3 116.7 492.7 139.3 514.2 149.2C535.7 159 557.3 156 578.8 154.5C600.3 153 621.7 153 643 146.3C664.3 139.7 685.7 126.3 707 126.2C728.3 126 749.7 139 771.2 139.3C792.7 139.7 814.3 127.3 835.8 125.3C857.3 123.3 878.7 131.7 889.3 135.8L900 140L900 201L889.3 201C878.7 201 857.3 201 835.8 201C814.3 201 792.7 201 771.2 201C749.7 201 728.3 201 707 201C685.7 201 664.3 201 643 201C621.7 201 600.3 201 578.8 201C557.3 201 535.7 201 514.2 201C492.7 201 471.3 201 450 201C428.7 201 407.3 201 385.8 201C364.3 201 342.7 201 321.2 201C299.7 201 278.3 201 257 201C235.7 201 214.3 201 193 201C171.7 201 150.3 201 128.8 201C107.3 201 85.7 201 64.2 201C42.7 201 21.3 201 10.7 201L0 201Z" fill="#7aae73"></path><path d="M0 185L10.7 179.8C21.3 174.7 42.7 164.3 64.2 161.5C85.7 158.7 107.3 163.3 128.8 167.8C150.3 172.3 171.7 176.7 193 175.8C214.3 175 235.7 169 257 161.5C278.3 154 299.7 145 321.2 141.5C342.7 138 364.3 140 385.8 139C407.3 138 428.7 134 450 140.8C471.3 147.7 492.7 165.3 514.2 173.2C535.7 181 557.3 179 578.8 175.7C600.3 172.3 621.7 167.7 643 161.5C664.3 155.3 685.7 147.7 707 152.2C728.3 156.7 749.7 173.3 771.2 177.2C792.7 181 814.3 172 835.8 171.2C857.3 170.3 878.7 177.7 889.3 181.3L900 185L900 201L889.3 201C878.7 201 857.3 201 835.8 201C814.3 201 792.7 201 771.2 201C749.7 201 728.3 201 707 201C685.7 201 664.3 201 643 201C621.7 201 600.3 201 578.8 201C557.3 201 535.7 201 514.2 201C492.7 201 471.3 201 450 201C428.7 201 407.3 201 385.8 201C364.3 201 342.7 201 321.2 201C299.7 201 278.3 201 257 201C235.7 201 214.3 201 193 201C171.7 201 150.3 201 128.8 201C107.3 201 85.7 201 64.2 201C42.7 201 21.3 201 10.7 201L0 201Z" fill="#689d6a"></path></svg>