<svg id="visual" viewBox="0 0 900 100" width="900" height="100" xmlns="http://www.w3.org/2000/svg" xmlns:xlink="http://www.w3.org/1999/xlink" version="1.1"><path d="M0 16L82 20L164 11L245 8L327 10L409 15L491 9L573 18L655 22L736 13L818 16L900 21L900 0L818 0L736 0L655 0L573 0L491 0L409 0L327 0L245 0L164 0L82 0L0 0Z" fill="#689d6a"></path><path d="M0 35L82 36L164 25L245 23L327 26L409 39L491 31L573 38L655 33L736 32L818 34L900 44L900 19L818 14L736 11L655 20L573 16L491 7L409 13L327 8L245 6L164 9L82 18L0 14Z" fill="#55976c"></path><path d="M0 72L82 68L164 57L245 74L327 59L409 58L491 54L573 54L655 62L736 64L818 58L900 75L900 42L818 32L736 30L655 31L573 36L491 29L409 37L327 24L245 21L164 23L82 34L0 33Z" fill="#41916e"></path><path d="M0 91L82 85L164 90L245 93L327 88L409 87L491 89L573 84L655 90L736 86L818 95L900 94L900 73L818 56L736 62L655 60L573 52L491 52L409 56L327 57L245 72L164 55L82 66L0 70Z" fill="#2a8a71"></path><path d="M0 101L82 101L164 101L245 101L327 101L409 101L491 101L573 101L655 101L736 101L818 101L900 101L900 92L818 93L736 84L655 88L573 82L491 87L409 85L327 86L245 91L164 88L82 83L0 89Z" fill="#038373"></path></svg>