<svg id="visual" viewBox="0 0 900 100" width="900" height="100" xmlns="http://www.w3.org/2000/svg" xmlns:xlink="http://www.w3.org/1999/xlink" version="1.1"><rect x="0" y="0" width="900" height="100" fill="#fe8019"></rect><path d="M0 25L21.5 25.7C43 26.3 86 27.7 128.8 29.2C171.7 30.7 214.3 32.3 257.2 32.7C300 33 343 32 385.8 30.7C428.7 29.3 471.3 27.7 514.2 29C557 30.3 600 34.7 642.8 35.7C685.7 36.7 728.3 34.3 771.2 33.3C814 32.3 857 32.7 878.5 32.8L900 33L900 0L878.5 0C857 0 814 0 771.2 0C728.3 0 685.7 0 642.8 0C600 0 557 0 514.2 0C471.3 0 428.7 0 385.8 0C343 0 300 0 257.2 0C214.3 0 171.7 0 128.8 0C86 0 43 0 21.5 0L0 0Z" fill="#fb4934"></path><path d="M0 30L21.5 28.7C43 27.3 86 24.7 128.8 22.8C171.7 21 214.3 20 257.2 20.3C300 20.7 343 22.3 385.8 22.5C428.7 22.7 471.3 21.3 514.2 20.7C557 20 600 20 642.8 22.2C685.7 24.3 728.3 28.7 771.2 29.2C814 29.7 857 26.3 878.5 24.7L900 23L900 0L878.5 0C857 0 814 0 771.2 0C728.3 0 685.7 0 642.8 0C600 0 557 0 514.2 0C471.3 0 428.7 0 385.8 0C343 0 300 0 257.2 0C214.3 0 171.7 0 128.8 0C86 0 43 0 21.5 0L0 0Z" fill="#ef402e"></path><path d="M0 22L21.5 21.2C43 20.3 86 18.7 128.8 19.2C171.7 19.7 214.3 22.3 257.2 23.2C300 24 343 23 385.8 21.7C428.7 20.3 471.3 18.7 514.2 17.3C557 16 600 15 642.8 15C685.7 15 728.3 16 771.2 17.2C814 18.3 857 19.7 878.5 20.3L900 21L900 0L878.5 0C857 0 814 0 771.2 0C728.3 0 685.7 0 642.8 0C600 0 557 0 514.2 0C471.3 0 428.7 0 385.8 0C343 0 300 0 257.2 0C214.3 0 171.7 0 128.8 0C86 0 43 0 21.5 0L0 0Z" fill="#e33728"></path><path d="M0 9L21.5 10.3C43 11.7 86 14.3 128.8 15.2C171.7 16 214.3 15 257.2 14.3C300 13.7 343 13.3 385.8 14C428.7 14.7 471.3 16.3 514.2 15.7C557 15 600 12 642.8 10.7C685.7 9.3 728.3 9.7 771.2 11C814 12.3 857 14.7 878.5 15.8L900 17L900 0L878.5 0C857 0 814 0 771.2 0C728.3 0 685.7 0 642.8 0C600 0 557 0 514.2 0C471.3 0 428.7 0 385.8 0C343 0 300 0 257.2 0C214.3 0 171.7 0 128.8 0C86 0 43 0 21.5 0L0 0Z" fill="#d72e22"></path><path d="M0 9L21.5 8.2C43 7.3 86 5.7 128.8 5C171.7 4.3 214.3 4.7 257.2 5.7C300 6.7 343 8.3 385.8 8.3C428.7 8.3 471.3 6.7 514.2 5.7C557 4.7 600 4.3 642.8 5C685.7 5.7 728.3 7.3 771.2 7.8C814 8.3 857 7.7 878.5 7.3L900 7L900 0L878.5 0C857 0 814 0 771.2 0C728.3 0 685.7 0 642.8 0C600 0 557 0 514.2 0C471.3 0 428.7 0 385.8 0C343 0 300 0 257.2 0C214.3 0 171.7 0 128.8 0C86 0 43 0 21.5 0L0 0Z" fill="#cc241d"></path></svg>