<svg id="visual" viewBox="0 0 900 100" width="900" height="100" xmlns="http://www.w3.org/2000/svg" xmlns:xlink="http://www.w3.org/1999/xlink" version="1.1"><rect x="0" y="0" width="900" height="100" fill="#282828"></rect><path d="M0 61L21.5 61.7C43 62.3 86 63.7 128.8 63.3C171.7 63 214.3 61 257.2 60.7C300 60.3 343 61.7 385.8 63C428.7 64.3 471.3 65.7 514.2 65.7C557 65.7 600 64.3 642.8 65.2C685.7 66 728.3 69 771.2 69.5C814 70 857 68 878.5 67L900 66L900 101L878.5 101C857 101 814 101 771.2 101C728.3 101 685.7 101 642.8 101C600 101 557 101 514.2 101C471.3 101 428.7 101 385.8 101C343 101 300 101 257.2 101C214.3 101 171.7 101 128.8 101C86 101 43 101 21.5 101L0 101Z" fill="#fb4934"></path><path d="M0 77L21.5 76C43 75 86 73 128.8 72.7C171.7 72.3 214.3 73.7 257.2 74.8C300 76 343 77 385.8 77.5C428.7 78 471.3 78 514.2 76.3C557 74.7 600 71.3 642.8 70C685.7 68.7 728.3 69.3 771.2 70.5C814 71.7 857 73.3 878.5 74.2L900 75L900 101L878.5 101C857 101 814 101 771.2 101C728.3 101 685.7 101 642.8 101C600 101 557 101 514.2 101C471.3 101 428.7 101 385.8 101C343 101 300 101 257.2 101C214.3 101 171.7 101 128.8 101C86 101 43 101 21.5 101L0 101Z" fill="#ef402e"></path><path d="M0 73L21.5 74.8C43 76.7 86 80.3 128.8 80.3C171.7 80.3 214.3 76.7 257.2 76.5C300 76.3 343 79.7 385.8 79.8C428.7 80 471.3 77 514.2 76.2C557 75.3 600 76.7 642.8 78.3C685.7 80 728.3 82 771.2 81.8C814 81.7 857 79.3 878.5 78.2L900 77L900 101L878.5 101C857 101 814 101 771.2 101C728.3 101 685.7 101 642.8 101C600 101 557 101 514.2 101C471.3 101 428.7 101 385.8 101C343 101 300 101 257.2 101C214.3 101 171.7 101 128.8 101C86 101 43 101 21.5 101L0 101Z" fill="#e33728"></path><path d="M0 86L21.5 85.3C43 84.7 86 83.3 128.8 83.2C171.7 83 214.3 84 257.2 84.2C300 84.3 343 83.7 385.8 83.2C428.7 82.7 471.3 82.3 514.2 81.7C557 81 600 80 642.8 80.5C685.7 81 728.3 83 771.2 83.7C814 84.3 857 83.7 878.5 83.3L900 83L900 101L878.5 101C857 101 814 101 771.2 101C728.3 101 685.7 101 642.8 101C600 101 557 101 514.2 101C471.3 101 428.7 101 385.8 101C343 101 300 101 257.2 101C214.3 101 171.7 101 128.8 101C86 101 43 101 21.5 101L0 101Z" fill="#d72e22"></path><path d="M0 91L21.5 90.8C43 90.7 86 90.3 128.8 90.7C171.7 91 214.3 92 257.2 92.7C300 93.3 343 93.7 385.8 93C428.7 92.3 471.3 90.7 514.2 90.3C557 90 600 91 642.8 91.7C685.7 92.3 728.3 92.7 771.2 92.8C814 93 857 93 878.5 93L900 93L900 101L878.5 101C857 101 814 101 771.2 101C728.3 101 685.7 101 642.8 101C600 101 557 101 514.2 101C471.3 101 428.7 101 385.8 101C343 101 300 101 257.2 101C214.3 101 171.7 101 128.8 101C86 101 43 101 21.5 101L0 101Z" fill="#cc241d"></path></svg>