<svg id="visual" viewBox="0 0 900 100" width="900" height="100" xmlns="http://www.w3.org/2000/svg" xmlns:xlink="http://www.w3.org/1999/xlink" version="1.1"><rect x="0" y="0" width="900" height="100" fill="#fe8019"></rect><path d="M0 62L21.5 63.8C43 65.7 86 69.3 128.8 70.5C171.7 71.7 214.3 70.3 257.2 67.8C300 65.3 343 61.7 385.8 62.3C428.7 63 471.3 68 514.2 69C557 70 600 67 642.8 66C685.7 65 728.3 66 771.2 65C814 64 857 61 878.5 59.5L900 58L900 101L878.5 101C857 101 814 101 771.2 101C728.3 101 685.7 101 642.8 101C600 101 557 101 514.2 101C471.3 101 428.7 101 385.8 101C343 101 300 101 257.2 101C214.3 101 171.7 101 128.8 101C86 101 43 101 21.5 101L0 101Z" fill="#8ec07c"></path><path d="M0 78L21.5 76.8C43 75.7 86 73.3 128.8 73.5C171.7 73.7 214.3 76.3 257.2 76C300 75.7 343 72.3 385.8 70.5C428.7 68.7 471.3 68.3 514.2 69.3C557 70.3 600 72.7 642.8 73.5C685.7 74.3 728.3 73.7 771.2 73.2C814 72.7 857 72.3 878.5 72.2L900 72L900 101L878.5 101C857 101 814 101 771.2 101C728.3 101 685.7 101 642.8 101C600 101 557 101 514.2 101C471.3 101 428.7 101 385.8 101C343 101 300 101 257.2 101C214.3 101 171.7 101 128.8 101C86 101 43 101 21.5 101L0 101Z" fill="#84b778"></path><path d="M0 74L21.5 74.5C43 75 86 76 128.8 77.5C171.7 79 214.3 81 257.2 81.5C300 82 343 81 385.8 80.8C428.7 80.7 471.3 81.3 514.2 80.7C557 80 600 78 642.8 77.3C685.7 76.7 728.3 77.3 771.2 78.2C814 79 857 80 878.5 80.5L900 81L900 101L878.5 101C857 101 814 101 771.2 101C728.3 101 685.7 101 642.8 101C600 101 557 101 514.2 101C471.3 101 428.7 101 385.8 101C343 101 300 101 257.2 101C214.3 101 171.7 101 128.8 101C86 101 43 101 21.5 101L0 101Z" fill="#7aae73"></path><path d="M0 84L21.5 84.8C43 85.7 86 87.3 128.8 87.5C171.7 87.7 214.3 86.3 257.2 86.3C300 86.3 343 87.7 385.8 87.8C428.7 88 471.3 87 514.2 87C557 87 600 88 642.8 87.8C685.7 87.7 728.3 86.3 771.2 85.7C814 85 857 85 878.5 85L900 85L900 101L878.5 101C857 101 814 101 771.2 101C728.3 101 685.7 101 642.8 101C600 101 557 101 514.2 101C471.3 101 428.7 101 385.8 101C343 101 300 101 257.2 101C214.3 101 171.7 101 128.8 101C86 101 43 101 21.5 101L0 101Z" fill="#71a56f"></path><path d="M0 94L21.5 93.8C43 93.7 86 93.3 128.8 93C171.7 92.7 214.3 92.3 257.2 91.8C300 91.3 343 90.7 385.8 90C428.7 89.3 471.3 88.7 514.2 89C557 89.3 600 90.7 642.8 91.3C685.7 92 728.3 92 771.2 91.2C814 90.3 857 88.7 878.5 87.8L900 87L900 101L878.5 101C857 101 814 101 771.2 101C728.3 101 685.7 101 642.8 101C600 101 557 101 514.2 101C471.3 101 428.7 101 385.8 101C343 101 300 101 257.2 101C214.3 101 171.7 101 128.8 101C86 101 43 101 21.5 101L0 101Z" fill="#689d6a"></path></svg>